<svg width="16" height="14" viewBox="0 0 16 14" fill="none" xmlns="http://www.w3.org/2000/svg">
<path d="M8 0.812502C7.91225 0.812502 7.8245 0.829377 7.74406 0.863127L0.797187 4.06656C0.650938 4.13406 0.650938 4.23981 0.797187 4.30731L7.74406 7.51188C7.82514 7.54576 7.91213 7.56321 8 7.56321C8.08787 7.56321 8.17486 7.54576 8.25594 7.51188L15.2028 4.30731C15.3491 4.23981 15.3491 4.13406 15.2028 4.06656L8.25594 0.863127C8.17481 0.829487 8.08782 0.812279 8 0.812502ZM8 1.98363L12.7768 4.1875L8 6.39138L3.22325 4.1875L8 1.98363ZM1.7225 6.12644L0.797187 6.58938C0.650938 6.6625 0.650938 6.775 0.797187 6.84813L7.74406 10.3199C7.82446 10.3563 7.91172 10.3752 8 10.3752C8.08828 10.3752 8.17554 10.3563 8.25594 10.3199L15.2028 6.84813C15.3491 6.775 15.3491 6.6625 15.2028 6.58938L14.2775 6.12644L8.25594 9.13581C8.17554 9.17226 8.08828 9.19112 8 9.19112C7.91172 9.19112 7.82446 9.17226 7.74406 9.13581L1.7225 6.12644ZM1.7225 8.93894L0.797187 9.40188C0.650938 9.475 0.650938 9.5875 0.797187 9.66063L7.74406 13.1324C7.82446 13.1688 7.91172 13.1877 8 13.1877C8.08828 13.1877 8.17554 13.1688 8.25594 13.1324L15.2028 9.66063C15.3491 9.5875 15.3491 9.475 15.2028 9.40188L14.2775 8.93894L8.25594 11.9483C8.17554 11.9848 8.08828 12.0036 8 12.0036C7.91172 12.0036 7.82446 11.9848 7.74406 11.9483L1.7225 8.93894Z" fill="#1FA9E7"/>
</svg>
