<svg width="40" height="40" viewBox="0 0 40 40" fill="none" xmlns="http://www.w3.org/2000/svg">
<rect width="40" height="40" rx="20" fill="#1393CD"/>
<path d="M8 13.25C8 14.4688 9.374 15.5 11 15.5C11.891 15.5 12.6965 15.1865 13.25 14.7057C13.8035 15.1865 14.6097 15.5 15.5 15.5C16.391 15.5 17.1965 15.1865 17.75 14.7057C18.3035 15.1865 19.1097 15.5 20 15.5C20.891 15.5 21.6965 15.1865 22.25 14.7057C22.8035 15.1865 23.6097 15.5 24.5 15.5C25.391 15.5 26.1965 15.1865 26.75 14.7057C27.3035 15.1865 28.1098 15.5 29 15.5C30.626 15.5 32 14.4688 32 13.25H30.5C30.5 13.4788 29.9315 14 29 14C28.0828 14 27.5 13.4727 27.5 13.25H26C26 13.4788 25.4315 14 24.5 14C23.5828 14 23 13.4727 23 13.25H21.5C21.5 13.4788 20.9315 14 20 14C19.0828 14 18.5 13.4727 18.5 13.25H17C17 13.4788 16.4345 14 15.5 14C14.5827 14 14 13.4727 14 13.25H12.5C12.5 13.4788 11.9345 14 11 14C10.0827 14 9.5 13.4727 9.5 13.25H8ZM8 19.25C8 20.4688 9.374 21.5 11 21.5C11.891 21.5 12.6965 21.1865 13.25 20.7057C13.8035 21.1865 14.6097 21.5 15.5 21.5C16.391 21.5 17.1965 21.1865 17.75 20.7057C18.3035 21.1865 19.1097 21.5 20 21.5C20.891 21.5 21.6965 21.1865 22.25 20.7057C22.8035 21.1865 23.6097 21.5 24.5 21.5C25.391 21.5 26.1965 21.1865 26.75 20.7057C27.3035 21.1865 28.1098 21.5 29 21.5C30.626 21.5 32 20.4688 32 19.25H30.5C30.5 19.4788 29.9315 20 29 20C28.0828 20 27.5 19.4728 27.5 19.25H26C26 19.4788 25.4315 20 24.5 20C23.5828 20 23 19.4728 23 19.25H21.5C21.5 19.4788 20.9315 20 20 20C19.0828 20 18.5 19.4728 18.5 19.25H17C17 19.4788 16.4345 20 15.5 20C14.5827 20 14 19.4728 14 19.25H12.5C12.5 19.4788 11.9345 20 11 20C10.0827 20 9.5 19.4728 9.5 19.25H8ZM8 25.25C8 26.4688 9.374 27.5 11 27.5C11.891 27.5 12.6965 27.1865 13.25 26.7057C13.8035 27.1865 14.6097 27.5 15.5 27.5C16.391 27.5 17.1965 27.1865 17.75 26.7057C18.3035 27.1865 19.1097 27.5 20 27.5C20.891 27.5 21.6965 27.1865 22.25 26.7057C22.8035 27.1865 23.6097 27.5 24.5 27.5C25.391 27.5 26.1965 27.1865 26.75 26.7057C27.3035 27.1865 28.1098 27.5 29 27.5C30.626 27.5 32 26.4688 32 25.25H30.5C30.5 25.4788 29.9315 26 29 26C28.0828 26 27.5 25.4727 27.5 25.25H26C26 25.4788 25.4315 26 24.5 26C23.5828 26 23 25.4727 23 25.25H21.5C21.5 25.4788 20.9315 26 20 26C19.0828 26 18.5 25.4727 18.5 25.25H17C17 25.4788 16.4345 26 15.5 26C14.5827 26 14 25.4727 14 25.25H12.5C12.5 25.4788 11.9345 26 11 26C10.0827 26 9.5 25.4727 9.5 25.25H8Z" fill="white"/>
</svg>
