<svg width="24" height="15" viewBox="0 0 24 15" fill="none" xmlns="http://www.w3.org/2000/svg">
<path d="M0 0.25C0 1.46875 1.374 2.5 3 2.5C3.891 2.5 4.6965 2.1865 5.25 1.70575C5.8035 2.1865 6.60975 2.5 7.5 2.5C8.391 2.5 9.1965 2.1865 9.75 1.70575C10.3035 2.1865 11.1097 2.5 12 2.5C12.891 2.5 13.6965 2.1865 14.25 1.70575C14.8035 2.1865 15.6097 2.5 16.5 2.5C17.391 2.5 18.1965 2.1865 18.75 1.70575C19.3035 2.1865 20.1097 2.5 21 2.5C22.626 2.5 24 1.46875 24 0.25H22.5C22.5 0.47875 21.9315 1 21 1C20.0827 1 19.5 0.47275 19.5 0.25H18C18 0.47875 17.4315 1 16.5 1C15.5827 1 15 0.47275 15 0.25H13.5C13.5 0.47875 12.9315 1 12 1C11.0827 1 10.5 0.47275 10.5 0.25H9C9 0.47875 8.4345 1 7.5 1C6.58275 1 6 0.47275 6 0.25H4.5C4.5 0.47875 3.9345 1 3 1C2.08275 1 1.5 0.47275 1.5 0.25H0ZM0 6.25C0 7.46875 1.374 8.5 3 8.5C3.891 8.5 4.6965 8.1865 5.25 7.70575C5.8035 8.1865 6.60975 8.5 7.5 8.5C8.391 8.5 9.1965 8.1865 9.75 7.70575C10.3035 8.1865 11.1097 8.5 12 8.5C12.891 8.5 13.6965 8.1865 14.25 7.70575C14.8035 8.1865 15.6097 8.5 16.5 8.5C17.391 8.5 18.1965 8.1865 18.75 7.70575C19.3035 8.1865 20.1097 8.5 21 8.5C22.626 8.5 24 7.46875 24 6.25H22.5C22.5 6.47875 21.9315 7 21 7C20.0827 7 19.5 6.47275 19.5 6.25H18C18 6.47875 17.4315 7 16.5 7C15.5827 7 15 6.47275 15 6.25H13.5C13.5 6.47875 12.9315 7 12 7C11.0827 7 10.5 6.47275 10.5 6.25H9C9 6.47875 8.4345 7 7.5 7C6.58275 7 6 6.47275 6 6.25H4.5C4.5 6.47875 3.9345 7 3 7C2.08275 7 1.5 6.47275 1.5 6.25H0ZM0 12.25C0 13.4688 1.374 14.5 3 14.5C3.891 14.5 4.6965 14.1865 5.25 13.7057C5.8035 14.1865 6.60975 14.5 7.5 14.5C8.391 14.5 9.1965 14.1865 9.75 13.7057C10.3035 14.1865 11.1097 14.5 12 14.5C12.891 14.5 13.6965 14.1865 14.25 13.7057C14.8035 14.1865 15.6097 14.5 16.5 14.5C17.391 14.5 18.1965 14.1865 18.75 13.7057C19.3035 14.1865 20.1097 14.5 21 14.5C22.626 14.5 24 13.4688 24 12.25H22.5C22.5 12.4788 21.9315 13 21 13C20.0827 13 19.5 12.4727 19.5 12.25H18C18 12.4788 17.4315 13 16.5 13C15.5827 13 15 12.4727 15 12.25H13.5C13.5 12.4788 12.9315 13 12 13C11.0827 13 10.5 12.4727 10.5 12.25H9C9 12.4788 8.4345 13 7.5 13C6.58275 13 6 12.4727 6 12.25H4.5C4.5 12.4788 3.9345 13 3 13C2.08275 13 1.5 12.4727 1.5 12.25H0Z" fill="#1FA9E7"/>
</svg>
