<svg width="14" height="21" viewBox="0 0 14 21" fill="none" xmlns="http://www.w3.org/2000/svg">
<path d="M7 0.25C3.28225 0.25 0.25 3.28225 0.25 7C0.25 8.0545 0.6775 9.265 1.258 10.5858C1.83775 11.9073 2.5855 13.3105 3.34375 14.617C4.29916 16.2562 5.31562 17.8591 6.391 19.4222L7 20.3125L7.60975 19.4215C7.60975 19.4215 9.139 17.2337 10.6562 14.617C11.4152 13.3105 12.1623 11.9073 12.742 10.5858C13.3225 9.265 13.75 8.0545 13.75 7C13.75 3.28225 10.7177 0.25 7 0.25ZM7 1.75C9.90925 1.75 12.25 4.09075 12.25 7C12.25 7.6 11.9275 8.737 11.383 9.97675C10.8377 11.2157 10.0855 12.5898 9.34375 13.867C8.16625 15.9003 7.4335 16.9757 7 17.617C6.5665 16.9757 5.83375 15.9003 4.65625 13.867C3.91525 12.5898 3.16225 11.2157 2.617 9.97675C2.0725 8.737 1.75 7.6 1.75 7C1.75 4.09075 4.09075 1.75 7 1.75ZM7 5.5C6.60218 5.5 6.22064 5.65804 5.93934 5.93934C5.65804 6.22064 5.5 6.60218 5.5 7C5.5 7.39782 5.65804 7.77936 5.93934 8.06066C6.22064 8.34196 6.60218 8.5 7 8.5C7.39782 8.5 7.77936 8.34196 8.06066 8.06066C8.34196 7.77936 8.5 7.39782 8.5 7C8.5 6.60218 8.34196 6.22064 8.06066 5.93934C7.77936 5.65804 7.39782 5.5 7 5.5Z" fill="#1FA9E7"/>
</svg>
