<svg width="20" height="20" viewBox="0 0 20 20" fill="none" xmlns="http://www.w3.org/2000/svg">
<path d="M12.25 0.25C8.116 0.25 4.75 3.616 4.75 7.75C4.75 9.54625 5.38 11.1925 6.4375 12.4847L0.460754 18.46L1.54 19.54L7.516 13.5632C8.85066 14.6575 10.5241 15.2537 12.25 15.25C16.384 15.25 19.75 11.884 19.75 7.75C19.75 3.616 16.384 0.25 12.25 0.25ZM12.25 1.75C15.5725 1.75 18.25 4.4275 18.25 7.75C18.25 11.0725 15.5725 13.75 12.25 13.75C8.9275 13.75 6.25 11.0725 6.25 7.75C6.25 4.4275 8.9275 1.75 12.25 1.75Z" fill="#757575"/>
</svg>
