<svg width="16" height="18" viewBox="0 0 16 18" fill="none" xmlns="http://www.w3.org/2000/svg">
<path d="M8 0.75C5.10875 0.75 2.75 3.10875 2.75 6C2.75 7.8075 3.6725 9.4125 5.0705 10.3597C2.39525 11.5072 0.5 14.1622 0.5 17.25H2C1.99905 16.2247 2.26154 15.2163 2.7623 14.3215C3.26306 13.4268 3.9853 12.6757 4.85975 12.1403C5.11565 12.7632 5.55065 13.2962 6.10966 13.6718C6.66867 14.0473 7.32655 14.2486 8 14.25C8.67358 14.2487 9.33162 14.0475 9.89078 13.672C10.4499 13.2964 10.885 12.7633 11.141 12.1403C12.0153 12.6758 12.7374 13.4269 13.238 14.3216C13.7386 15.2164 14.001 16.2247 14 17.25H15.5C15.5 14.1622 13.6047 11.508 10.9295 10.359C11.643 9.87733 12.2276 9.22815 12.6321 8.46824C13.0367 7.70834 13.2488 6.86087 13.25 6C13.25 3.10875 10.8912 0.75 8 0.75ZM8 2.25C10.0798 2.25 11.75 3.92025 11.75 6C11.75 8.07975 10.0798 9.75 8 9.75C5.92025 9.75 4.25 8.07975 4.25 6C4.25 3.92025 5.92025 2.25 8 2.25ZM8 11.25C8.615 11.25 9.2015 11.3377 9.758 11.508C9.62988 11.872 9.39196 12.1872 9.07707 12.4101C8.76218 12.6331 8.38584 12.7529 8 12.7529C7.61416 12.7529 7.23782 12.6331 6.92293 12.4101C6.60804 12.1872 6.37012 11.872 6.242 11.508C6.81191 11.3351 7.40443 11.2481 8 11.25Z" fill="white"/>
</svg>
