<svg width="64" height="64" viewBox="0 0 64 64" fill="none" xmlns="http://www.w3.org/2000/svg">
<g clip-path="url(#clip0_166_1279)">
<path d="M55.7554 15.1522L59.4031 17.2581V21.4701L55.7554 23.5761L52.1078 21.4701V17.2581L55.7554 15.1522Z" fill="#D8F2FF"/>
<path d="M4.21196 23.576L7.85962 25.682V29.894L4.21196 32L0.564295 29.894V25.682L4.21196 23.576Z" fill="#D8F2FF"/>
<path d="M60.9838 9.37565C61.2932 9.19702 61.6744 9.19702 61.9838 9.37565L63.1724 10.0619C63.4818 10.2405 63.6724 10.5706 63.6724 10.9279V12.3004C63.6724 12.6577 63.4818 12.9878 63.1724 13.1664L61.9838 13.8526C61.6744 14.0313 61.2932 14.0313 60.9838 13.8526L59.7952 13.1664C59.4858 12.9878 59.2952 12.6577 59.2952 12.3004V10.9279C59.2952 10.5706 59.4858 10.2405 59.7952 10.0619L60.9838 9.37565Z" fill="url(#paint0_linear_166_1279)"/>
<rect width="42.1196" height="50.5435" rx="3" transform="matrix(-1 0 0 1 55.9238 6.72827)" fill="url(#paint1_linear_166_1279)"/>
<rect x="26.3334" y="22" width="16.6667" height="3.33333" rx="1.66667" fill="url(#paint2_linear_166_1279)"/>
<rect x="22" y="28" width="25" height="3.33333" rx="1.66667" fill="url(#paint3_linear_166_1279)"/>
<rect x="26.3334" y="34" width="16.6667" height="3.33333" rx="1.66667" fill="url(#paint4_linear_166_1279)"/>
<rect x="24.6666" y="40" width="20" height="3.33333" rx="1.66667" fill="url(#paint5_linear_166_1279)"/>
<path d="M54.7554 51.7839C55.3742 51.4266 56.1366 51.4266 56.7554 51.7839L59.8621 53.5776C60.4809 53.9348 60.8621 54.5951 60.8621 55.3096V58.897C60.8621 59.6115 60.4809 60.2717 59.8621 60.629L56.7554 62.4227C56.1366 62.7799 55.3742 62.7799 54.7554 62.4227L51.6487 60.629C51.0299 60.2717 50.6487 59.6115 50.6487 58.897V55.3096C50.6487 54.5951 51.0299 53.9348 51.6487 53.5776L54.7554 51.7839Z" fill="#D8F2FF"/>
<path d="M12.7391 31.2295C13.3579 30.8722 14.1203 30.8722 14.7391 31.2295L18.5754 33.4444C19.1942 33.8016 19.5754 34.4619 19.5754 35.1764V39.6062C19.5754 40.3207 19.1942 40.9809 18.5754 41.3382L14.7391 43.5531C14.1203 43.9103 13.3579 43.9103 12.7391 43.5531L8.90287 41.3382C8.28407 40.9809 7.90287 40.3207 7.90287 39.6062V35.1764C7.90287 34.4619 8.28407 33.8016 8.90287 33.4444L12.7391 31.2295Z" fill="url(#paint6_linear_166_1279)"/>
<path d="M34.0336 1.57735C34.6524 1.22008 35.4148 1.22008 36.0336 1.57735L38.9944 3.28678C39.6132 3.64405 39.9944 4.3043 39.9944 5.01883V8.43769C39.9944 9.15222 39.6132 9.81248 38.9944 10.1697L36.0336 11.8792C35.4148 12.2364 34.6524 12.2364 34.0336 11.8792L31.0727 10.1697C30.4539 9.81248 30.0727 9.15222 30.0727 8.43769V5.01883C30.0727 4.3043 30.4539 3.64405 31.0727 3.28678L34.0336 1.57735Z" fill="#1393CD"/>
<g clip-path="url(#clip1_166_1279)">
<path d="M35.0326 24.587C32.4043 24.587 30.3152 26.6761 30.3152 29.3044C30.3106 30.0773 30.4971 30.8393 30.858 31.5228C31.2189 32.2062 31.7432 32.7899 32.3841 33.2218C29.985 34.2549 28.2935 36.6446 28.2935 39.4131H29.6413C29.6413 36.4478 32.0674 34.0218 35.0326 34.0218C37.6608 34.0218 39.75 31.9326 39.75 29.3044C39.75 26.6761 37.6608 24.587 35.0326 24.587ZM35.0326 25.9348C36.9195 25.9348 38.4022 27.4174 38.4022 29.3044C38.4022 31.1913 36.9195 32.6739 35.0326 32.6739C33.1456 32.6739 31.663 31.1913 31.663 29.3044C31.663 27.4174 33.1456 25.9348 35.0326 25.9348ZM40.4913 33.3478V34.7631C40.0869 34.8305 39.6826 35.0326 39.3456 35.2348L38.3348 34.2239L37.3913 35.1674L38.4022 36.1783C38.1326 36.5152 37.9978 36.9196 37.9304 37.3913H36.3804V38.7391H37.7956C37.863 39.1435 38.0652 39.5478 38.2674 39.9522L37.2565 40.9631L38.2 41.9065L39.2108 40.8957C39.5478 41.0978 39.9522 41.3 40.3565 41.3674V42.7826H41.7043V41.3674C42.1087 41.3 42.513 41.0978 42.85 40.8957L43.8608 41.9065L44.8043 40.9631L43.7935 39.9522C44.063 39.6152 44.1978 39.2109 44.2652 38.7391H45.8152V37.3913H44.4C44.3326 36.987 44.1304 36.5826 43.9282 36.1783L44.9391 35.1674L43.9956 34.2239L42.9848 35.2348C42.6478 35.0326 42.2435 34.8305 41.8391 34.7631V33.3478H40.4913ZM41.0978 36.0435C42.2435 36.0435 43.1195 36.9196 43.1195 38.0652C43.1195 39.2109 42.2435 40.087 41.0978 40.087C39.9522 40.087 39.0761 39.2109 39.0761 38.0652C39.0761 36.9196 39.9522 36.0435 41.0978 36.0435ZM41.0978 37.3913C41.0121 37.3924 40.9277 37.4122 40.8505 37.4493C40.7703 37.4874 40.6973 37.5392 40.6348 37.6023C40.5717 37.6647 40.52 37.7377 40.4818 37.8179C40.4447 37.8951 40.4249 37.9796 40.4239 38.0652C40.4239 38.318 40.6133 38.5707 40.8505 38.6812C40.9277 38.7183 41.0121 38.7381 41.0978 38.7391C41.4348 38.7391 41.7717 38.4022 41.7717 38.0652C41.7717 37.7283 41.4348 37.3913 41.0978 37.3913Z" fill="white"/>
</g>
</g>
<defs>
<linearGradient id="paint0_linear_166_1279" x1="64.043" y1="11.6141" x2="58.9887" y2="11.6141" gradientUnits="userSpaceOnUse">
<stop stop-color="#1FA9E7"/>
<stop offset="1" stop-color="#3AB4EB"/>
</linearGradient>
<linearGradient id="paint1_linear_166_1279" x1="21.0598" y1="0" x2="21.0598" y2="50.5435" gradientUnits="userSpaceOnUse">
<stop stop-color="#79D3FC"/>
<stop offset="1" stop-color="#1FA9E7"/>
</linearGradient>
<linearGradient id="paint2_linear_166_1279" x1="34.6667" y1="22" x2="34.6667" y2="25.3333" gradientUnits="userSpaceOnUse">
<stop stop-color="#81D1F4"/>
<stop offset="1" stop-color="#81D1F4" stop-opacity="0"/>
</linearGradient>
<linearGradient id="paint3_linear_166_1279" x1="34.5" y1="28" x2="34.5" y2="31.3333" gradientUnits="userSpaceOnUse">
<stop stop-color="#81D1F4"/>
<stop offset="1" stop-color="#81D1F4" stop-opacity="0"/>
</linearGradient>
<linearGradient id="paint4_linear_166_1279" x1="34.6667" y1="34" x2="34.6667" y2="37.3333" gradientUnits="userSpaceOnUse">
<stop stop-color="#81D1F4"/>
<stop offset="1" stop-color="#81D1F4" stop-opacity="0"/>
</linearGradient>
<linearGradient id="paint5_linear_166_1279" x1="34.6666" y1="40" x2="34.6666" y2="43.3333" gradientUnits="userSpaceOnUse">
<stop stop-color="#81D1F4"/>
<stop offset="1" stop-color="#81D1F4" stop-opacity="0"/>
</linearGradient>
<linearGradient id="paint6_linear_166_1279" x1="20.5636" y1="37.3913" x2="7.08531" y2="37.3913" gradientUnits="userSpaceOnUse">
<stop stop-color="#1FA9E7"/>
<stop offset="1" stop-color="#3AB4EB"/>
</linearGradient>
<clipPath id="clip0_166_1279">
<rect width="64" height="64" fill="white"/>
</clipPath>
<clipPath id="clip1_166_1279">
<rect width="21.5652" height="21.5652" fill="white" transform="translate(24.25 21.2174)"/>
</clipPath>
</defs>
</svg>
