<svg width="550" height="400" viewBox="0 0 550 400" fill="none" xmlns="http://www.w3.org/2000/svg">
<g clip-path="url(#clip0_58_134)">
<g filter="url(#filter0_d_58_134)">
<circle cx="275" cy="200" r="200" fill="url(#paint0_linear_58_134)"/>
</g>
<rect x="1.25" y="26.25" width="547.5" height="347.5" rx="30.75" fill="white" fill-opacity="0.72" stroke="url(#paint1_linear_58_134)" stroke-width="2.5"/>
<g clip-path="url(#clip1_58_134)">
<rect x="20" y="43" width="510" height="315" rx="28" fill="url(#paint2_linear_58_134)"/>
<path d="M370.5 228L328.5 266.5L276.24 330.5M370.5 228L239 198.5L121.5 166.5M370.5 228L398.5 198.5M121.5 166.5L108 188L82 213.5L108 363L144.5 351L202 316L276.24 330.5M121.5 166.5L139 135.5M139 135.5L194.5 147H220L259.5 162.5L398.5 198.5M139 135.5L178.5 71L253 82.5L296 110.5L383.5 125.5L393 135.5L448 142M398.5 198.5L448 142M448 142L520.5 48H567.5L545 162.5M388.5 376.5L383.5 389.5L426 395L430.5 371.5L426 351L465 363L482.5 376.5H497V395H612.5V371.5M388.5 376.5L305 363M388.5 376.5V351L398.5 295.5L505.5 323M305 363V389.5H271.5L266.5 355.5L259.5 351L276.24 330.5M305 363L296 355.5V337L276.24 330.5M545 162.5L505.5 323M545 162.5L589 166.5L612.5 176.5V371.5M505.5 323L523.5 333.5L571.5 363L612.5 371.5" stroke="url(#paint3_radial_58_134)" stroke-width="3"/>
<g clip-path="url(#clip2_58_134)">
<path d="M92.3003 177.063C65.0569 137.568 60 133.515 60 119C60 99.1177 76.1177 83 96 83C115.882 83 132 99.1177 132 119C132 133.515 126.943 137.568 99.6997 177.063C97.9119 179.646 94.0879 179.646 92.3003 177.063ZM96 134C104.284 134 111 127.284 111 119C111 110.716 104.284 104 96 104C87.7157 104 81 110.716 81 119C81 127.284 87.7157 134 96 134Z" fill="url(#paint4_linear_58_134)"/>
</g>
<rect x="60" y="238" width="175" height="16" rx="8" fill="url(#paint5_linear_58_134)"/>
<rect x="60" y="274" width="225" height="16" rx="8" fill="url(#paint6_linear_58_134)"/>
<rect x="60" y="310" width="140" height="16" rx="8" fill="url(#paint7_linear_58_134)"/>
<g filter="url(#filter1_d_58_134)">
<rect x="462" y="96" width="22" height="22" rx="4" fill="url(#paint8_linear_58_134)"/>
<path d="M472.993 112C472.04 111.944 471.14 111.54 470.465 110.864C469.79 110.188 469.387 109.287 469.333 108.333C469.333 106.4 472.167 103.107 472.993 102C473.82 103.107 476.327 106.393 476.327 108.327C476.327 110.26 474.78 112 472.993 112Z" fill="white"/>
</g>
<g filter="url(#filter2_d_58_134)">
<rect x="378" y="207" width="12" height="12" rx="2" fill="url(#paint9_linear_58_134)"/>
<path d="M383.996 216C383.424 215.967 382.884 215.724 382.479 215.318C382.074 214.913 381.832 214.372 381.8 213.8C381.8 212.64 383.5 210.664 383.996 210C384.492 210.664 385.996 212.636 385.996 213.796C385.996 214.956 385.068 216 383.996 216Z" fill="white"/>
</g>
<g filter="url(#filter3_d_58_134)">
<rect x="431" y="293" width="22" height="22" rx="4" fill="url(#paint10_linear_58_134)"/>
<path d="M441.993 309C441.04 308.944 440.14 308.54 439.465 307.864C438.79 307.188 438.387 306.287 438.333 305.333C438.333 303.4 441.167 300.107 441.993 299C442.82 300.107 445.327 303.393 445.327 305.327C445.327 307.26 443.78 309 441.993 309Z" fill="white"/>
</g>
<g filter="url(#filter4_d_58_134)">
<rect x="270" y="156" width="22" height="22" rx="4" fill="url(#paint11_linear_58_134)" shape-rendering="crispEdges"/>
<path d="M280.993 172C280.04 171.944 279.14 171.54 278.465 170.864C277.79 170.188 277.387 169.287 277.333 168.333C277.333 166.4 280.167 163.107 280.993 162C281.82 163.107 284.327 166.393 284.327 168.327C284.327 170.26 282.78 172 280.993 172Z" fill="white"/>
</g>
<g filter="url(#filter5_d_58_134)">
<rect x="325" y="110" width="12" height="12" rx="4" fill="url(#paint12_linear_58_134)" shape-rendering="crispEdges"/>
<path d="M330.996 119C330.424 118.967 329.884 118.724 329.479 118.318C329.074 117.913 328.832 117.372 328.8 116.8C328.8 115.64 330.5 113.664 330.996 113C331.492 113.664 332.996 115.636 332.996 116.796C332.996 117.956 332.068 119 330.996 119Z" fill="white"/>
</g>
<g filter="url(#filter6_d_58_134)">
<rect x="522" y="216" width="16" height="16" rx="4" fill="url(#paint13_linear_58_134)"/>
<path d="M529.995 228C529.232 227.955 528.512 227.632 527.972 227.091C527.432 226.55 527.11 225.83 527.067 225.067C527.067 223.52 529.333 220.885 529.995 220C530.656 220.885 532.661 223.515 532.661 225.061C532.661 226.608 531.424 228 529.995 228Z" fill="white"/>
</g>
</g>
</g>
<defs>
<filter id="filter0_d_58_134" x="35" y="-16" width="480" height="480" filterUnits="userSpaceOnUse" color-interpolation-filters="sRGB">
<feFlood flood-opacity="0" result="BackgroundImageFix"/>
<feColorMatrix in="SourceAlpha" type="matrix" values="0 0 0 0 0 0 0 0 0 0 0 0 0 0 0 0 0 0 127 0" result="hardAlpha"/>
<feOffset dy="24"/>
<feGaussianBlur stdDeviation="20"/>
<feComposite in2="hardAlpha" operator="out"/>
<feColorMatrix type="matrix" values="0 0 0 0 0.121569 0 0 0 0 0.662745 0 0 0 0 0.905882 0 0 0 0.16 0"/>
<feBlend mode="normal" in2="BackgroundImageFix" result="effect1_dropShadow_58_134"/>
<feBlend mode="normal" in="SourceGraphic" in2="effect1_dropShadow_58_134" result="shape"/>
</filter>
<filter id="filter1_d_58_134" x="438" y="84" width="70" height="70" filterUnits="userSpaceOnUse" color-interpolation-filters="sRGB">
<feFlood flood-opacity="0" result="BackgroundImageFix"/>
<feColorMatrix in="SourceAlpha" type="matrix" values="0 0 0 0 0 0 0 0 0 0 0 0 0 0 0 0 0 0 127 0" result="hardAlpha"/>
<feOffset dy="12"/>
<feGaussianBlur stdDeviation="12"/>
<feComposite in2="hardAlpha" operator="out"/>
<feColorMatrix type="matrix" values="0 0 0 0 0.439216 0 0 0 0 0.564706 0 0 0 0 0.690196 0 0 0 0.24 0"/>
<feBlend mode="normal" in2="BackgroundImageFix" result="effect1_dropShadow_58_134"/>
<feBlend mode="normal" in="SourceGraphic" in2="effect1_dropShadow_58_134" result="shape"/>
</filter>
<filter id="filter2_d_58_134" x="354" y="195" width="60" height="60" filterUnits="userSpaceOnUse" color-interpolation-filters="sRGB">
<feFlood flood-opacity="0" result="BackgroundImageFix"/>
<feColorMatrix in="SourceAlpha" type="matrix" values="0 0 0 0 0 0 0 0 0 0 0 0 0 0 0 0 0 0 127 0" result="hardAlpha"/>
<feOffset dy="12"/>
<feGaussianBlur stdDeviation="12"/>
<feComposite in2="hardAlpha" operator="out"/>
<feColorMatrix type="matrix" values="0 0 0 0 0.439216 0 0 0 0 0.564706 0 0 0 0 0.690196 0 0 0 0.24 0"/>
<feBlend mode="normal" in2="BackgroundImageFix" result="effect1_dropShadow_58_134"/>
<feBlend mode="normal" in="SourceGraphic" in2="effect1_dropShadow_58_134" result="shape"/>
</filter>
<filter id="filter3_d_58_134" x="407" y="281" width="70" height="70" filterUnits="userSpaceOnUse" color-interpolation-filters="sRGB">
<feFlood flood-opacity="0" result="BackgroundImageFix"/>
<feColorMatrix in="SourceAlpha" type="matrix" values="0 0 0 0 0 0 0 0 0 0 0 0 0 0 0 0 0 0 127 0" result="hardAlpha"/>
<feOffset dy="12"/>
<feGaussianBlur stdDeviation="12"/>
<feComposite in2="hardAlpha" operator="out"/>
<feColorMatrix type="matrix" values="0 0 0 0 0.439216 0 0 0 0 0.564706 0 0 0 0 0.690196 0 0 0 0.24 0"/>
<feBlend mode="normal" in2="BackgroundImageFix" result="effect1_dropShadow_58_134"/>
<feBlend mode="normal" in="SourceGraphic" in2="effect1_dropShadow_58_134" result="shape"/>
</filter>
<filter id="filter4_d_58_134" x="246" y="144" width="70" height="70" filterUnits="userSpaceOnUse" color-interpolation-filters="sRGB">
<feFlood flood-opacity="0" result="BackgroundImageFix"/>
<feColorMatrix in="SourceAlpha" type="matrix" values="0 0 0 0 0 0 0 0 0 0 0 0 0 0 0 0 0 0 127 0" result="hardAlpha"/>
<feOffset dy="12"/>
<feGaussianBlur stdDeviation="12"/>
<feComposite in2="hardAlpha" operator="out"/>
<feColorMatrix type="matrix" values="0 0 0 0 0.439216 0 0 0 0 0.564706 0 0 0 0 0.690196 0 0 0 0.16 0"/>
<feBlend mode="normal" in2="BackgroundImageFix" result="effect1_dropShadow_58_134"/>
<feBlend mode="normal" in="SourceGraphic" in2="effect1_dropShadow_58_134" result="shape"/>
</filter>
<filter id="filter5_d_58_134" x="301" y="98" width="60" height="60" filterUnits="userSpaceOnUse" color-interpolation-filters="sRGB">
<feFlood flood-opacity="0" result="BackgroundImageFix"/>
<feColorMatrix in="SourceAlpha" type="matrix" values="0 0 0 0 0 0 0 0 0 0 0 0 0 0 0 0 0 0 127 0" result="hardAlpha"/>
<feOffset dy="12"/>
<feGaussianBlur stdDeviation="12"/>
<feComposite in2="hardAlpha" operator="out"/>
<feColorMatrix type="matrix" values="0 0 0 0 0.439216 0 0 0 0 0.564706 0 0 0 0 0.690196 0 0 0 0.16 0"/>
<feBlend mode="normal" in2="BackgroundImageFix" result="effect1_dropShadow_58_134"/>
<feBlend mode="normal" in="SourceGraphic" in2="effect1_dropShadow_58_134" result="shape"/>
</filter>
<filter id="filter6_d_58_134" x="498" y="204" width="64" height="64" filterUnits="userSpaceOnUse" color-interpolation-filters="sRGB">
<feFlood flood-opacity="0" result="BackgroundImageFix"/>
<feColorMatrix in="SourceAlpha" type="matrix" values="0 0 0 0 0 0 0 0 0 0 0 0 0 0 0 0 0 0 127 0" result="hardAlpha"/>
<feOffset dy="12"/>
<feGaussianBlur stdDeviation="12"/>
<feComposite in2="hardAlpha" operator="out"/>
<feColorMatrix type="matrix" values="0 0 0 0 0.439216 0 0 0 0 0.564706 0 0 0 0 0.690196 0 0 0 0.24 0"/>
<feBlend mode="normal" in2="BackgroundImageFix" result="effect1_dropShadow_58_134"/>
<feBlend mode="normal" in="SourceGraphic" in2="effect1_dropShadow_58_134" result="shape"/>
</filter>
<linearGradient id="paint0_linear_58_134" x1="275" y1="0" x2="275" y2="400" gradientUnits="userSpaceOnUse">
<stop stop-color="#1FA9E7"/>
<stop offset="1" stop-color="#17A2E0"/>
</linearGradient>
<linearGradient id="paint1_linear_58_134" x1="275" y1="25" x2="275" y2="375" gradientUnits="userSpaceOnUse">
<stop stop-color="white"/>
<stop offset="1" stop-color="white"/>
</linearGradient>
<linearGradient id="paint2_linear_58_134" x1="20" y1="201" x2="530" y2="201" gradientUnits="userSpaceOnUse">
<stop stop-color="white"/>
<stop offset="1" stop-color="#F3FBFF"/>
</linearGradient>
<radialGradient id="paint3_radial_58_134" cx="0" cy="0" r="1" gradientUnits="userSpaceOnUse" gradientTransform="translate(397.5 222) scale(257.5 393.671)">
<stop stop-color="#CDEAFD"/>
<stop offset="0.224515" stop-color="#DCF4FF"/>
<stop offset="0.651042" stop-color="#BFEBFF" stop-opacity="0"/>
</radialGradient>
<linearGradient id="paint4_linear_58_134" x1="96" y1="83" x2="96" y2="179" gradientUnits="userSpaceOnUse">
<stop stop-color="#BFEBFF"/>
<stop offset="1" stop-color="#1FA9E7"/>
</linearGradient>
<linearGradient id="paint5_linear_58_134" x1="60" y1="246" x2="235" y2="246" gradientUnits="userSpaceOnUse">
<stop stop-color="#ECF9FF"/>
<stop offset="1" stop-color="#DCF4FF"/>
</linearGradient>
<linearGradient id="paint6_linear_58_134" x1="60" y1="282" x2="285" y2="282" gradientUnits="userSpaceOnUse">
<stop stop-color="#1FA9E7"/>
<stop offset="1" stop-color="#62C1FA"/>
</linearGradient>
<linearGradient id="paint7_linear_58_134" x1="60" y1="318" x2="200" y2="318" gradientUnits="userSpaceOnUse">
<stop stop-color="#EAF8FF"/>
<stop offset="1" stop-color="#DBF4FF"/>
</linearGradient>
<linearGradient id="paint8_linear_58_134" x1="473" y1="96" x2="473" y2="118" gradientUnits="userSpaceOnUse">
<stop stop-color="#79D3FC"/>
<stop offset="1" stop-color="#1FA9E7"/>
</linearGradient>
<linearGradient id="paint9_linear_58_134" x1="384" y1="207" x2="384" y2="219" gradientUnits="userSpaceOnUse">
<stop stop-color="#79D3FC"/>
<stop offset="1" stop-color="#1FA9E7"/>
</linearGradient>
<linearGradient id="paint10_linear_58_134" x1="442" y1="293" x2="442" y2="315" gradientUnits="userSpaceOnUse">
<stop stop-color="#79D3FC"/>
<stop offset="1" stop-color="#1FA9E7"/>
</linearGradient>
<linearGradient id="paint11_linear_58_134" x1="321" y1="169" x2="270" y2="169" gradientUnits="userSpaceOnUse">
<stop stop-color="#1FA9E7"/>
<stop offset="1" stop-color="#BFEBFF" stop-opacity="0"/>
</linearGradient>
<linearGradient id="paint12_linear_58_134" x1="354" y1="116" x2="325" y2="116" gradientUnits="userSpaceOnUse">
<stop stop-color="#1FA9E7"/>
<stop offset="1" stop-color="#BFEBFF" stop-opacity="0"/>
</linearGradient>
<linearGradient id="paint13_linear_58_134" x1="530" y1="216" x2="530" y2="232" gradientUnits="userSpaceOnUse">
<stop stop-color="#D9F3FF"/>
<stop offset="1" stop-color="#A2E2FF"/>
</linearGradient>
<clipPath id="clip0_58_134">
<rect width="550" height="400" fill="white"/>
</clipPath>
<clipPath id="clip1_58_134">
<rect x="20" y="43" width="510" height="315" rx="28" fill="white"/>
</clipPath>
<clipPath id="clip2_58_134">
<rect width="72" height="96" fill="white" transform="translate(60 83)"/>
</clipPath>
</defs>
</svg>
