<svg width="64" height="64" viewBox="0 0 64 64" fill="none" xmlns="http://www.w3.org/2000/svg">
<g clip-path="url(#clip0_166_1294)">
<path d="M9.43613 15.5291C10.0549 15.1719 10.8173 15.1719 11.4361 15.5291L15.4449 17.8436C16.0637 18.2009 16.4449 18.8611 16.4449 19.5756V24.2046C16.4449 24.9191 16.0637 25.5794 15.4449 25.9366L11.4361 28.2511C10.8173 28.6083 10.0549 28.6083 9.43613 28.2511L5.42736 25.9366C4.80856 25.5794 4.42736 24.9191 4.42736 24.2046V19.5756C4.42736 18.8611 4.80856 18.2009 5.42736 17.8436L9.43613 15.5291Z" fill="#DAF3FF"/>
<path d="M3.96916 8.30216C4.27856 8.12353 4.65976 8.12353 4.96916 8.30216L6.97355 9.4594C7.28295 9.63803 7.47355 9.96815 7.47355 10.3254V12.6399C7.47355 12.9971 7.28295 13.3273 6.97355 13.5059L4.96916 14.6631C4.65976 14.8418 4.27856 14.8418 3.96916 14.6631L1.96478 13.5059C1.65538 13.3273 1.46478 12.9971 1.46478 12.6399V10.3254C1.46478 9.96816 1.65538 9.63803 1.96478 9.4594L3.96916 8.30216Z" fill="#0B7FB3"/>
<path d="M39.4933 57.9806C39.8027 57.8019 40.1839 57.8019 40.4933 57.9806L42.4977 59.1378C42.8071 59.3164 42.9977 59.6466 42.9977 60.0038V62.3183C42.9977 62.6756 42.8071 63.0057 42.4977 63.1843L40.4933 64.3415C40.1839 64.5202 39.8027 64.5202 39.4933 64.3415L37.4889 63.1843C37.1795 63.0057 36.9889 62.6756 36.9889 62.3183V60.0038C36.9889 59.6466 37.1795 59.3164 37.4889 59.1378L39.4933 57.9806Z" fill="#D8F2FF"/>
<path d="M59.4207 4.68304L62.4251 6.41763V9.88679L59.4207 11.6214L56.4163 9.88679V6.41763L59.4207 4.68304Z" fill="#D8F2FF"/>
<path d="M20.5397 14.9518C20.5397 8.11635 26.0809 2.57513 32.9163 2.57513C39.7518 2.57513 45.293 8.11635 45.293 14.9518V27.3284H20.5397V14.9518Z" stroke="#0B7FB3" stroke-width="3"/>
<rect x="12.1013" y="19.3923" width="41.63" height="34.6916" rx="3" fill="url(#paint0_linear_166_1294)"/>
<mask id="path-7-inside-1_166_1294" fill="white">
<path fill-rule="evenodd" clip-rule="evenodd" d="M35.1366 37.2935C35.9792 36.6606 36.5243 35.6529 36.5243 34.5179C36.5243 32.6019 34.9711 31.0487 33.0551 31.0487C31.1391 31.0487 29.5859 32.6019 29.5859 34.5179C29.5859 35.6528 30.131 36.6605 30.9736 37.2934V40.0685C30.9736 41.2181 31.9055 42.15 33.0551 42.15C34.2046 42.15 35.1366 41.2181 35.1366 40.0685V37.2935Z"/>
</mask>
<path fill-rule="evenodd" clip-rule="evenodd" d="M35.1366 37.2935C35.9792 36.6606 36.5243 35.6529 36.5243 34.5179C36.5243 32.6019 34.9711 31.0487 33.0551 31.0487C31.1391 31.0487 29.5859 32.6019 29.5859 34.5179C29.5859 35.6528 30.131 36.6605 30.9736 37.2934V40.0685C30.9736 41.2181 31.9055 42.15 33.0551 42.15C34.2046 42.15 35.1366 41.2181 35.1366 40.0685V37.2935Z" fill="#1393CD"/>
<path d="M35.1366 37.2935L34.8363 36.8937L34.6366 37.0437V37.2935H35.1366ZM30.9736 37.2934H31.4736V37.0437L31.2739 36.8936L30.9736 37.2934ZM36.0243 34.5179C36.0243 35.489 35.5586 36.3511 34.8363 36.8937L35.4368 37.6933C36.3998 36.97 37.0243 35.8168 37.0243 34.5179H36.0243ZM33.0551 31.5487C34.6949 31.5487 36.0243 32.878 36.0243 34.5179H37.0243C37.0243 32.3258 35.2472 30.5487 33.0551 30.5487V31.5487ZM30.0859 34.5179C30.0859 32.878 31.4153 31.5487 33.0551 31.5487V30.5487C30.863 30.5487 29.0859 32.3258 29.0859 34.5179H30.0859ZM31.2739 36.8936C30.5516 36.3511 30.0859 35.4889 30.0859 34.5179H29.0859C29.0859 35.8167 29.7104 36.9699 30.6733 37.6932L31.2739 36.8936ZM31.4736 40.0685V37.2934H30.4736V40.0685H31.4736ZM33.0551 41.65C32.1816 41.65 31.4736 40.942 31.4736 40.0685H30.4736C30.4736 41.4943 31.6293 42.65 33.0551 42.65V41.65ZM34.6366 40.0685C34.6366 40.942 33.9285 41.65 33.0551 41.65V42.65C34.4808 42.65 35.6366 41.4943 35.6366 40.0685H34.6366ZM34.6366 37.2935V40.0685H35.6366V37.2935H34.6366Z" fill="url(#paint1_linear_166_1294)" mask="url(#path-7-inside-1_166_1294)"/>
<path d="M52 40.866C52.9282 40.3301 54.0718 40.3301 55 40.866L61.0933 44.384C62.0215 44.9199 62.5933 45.9103 62.5933 46.9821V54.0179C62.5933 55.0897 62.0215 56.0801 61.0933 56.616L55 60.134C54.0718 60.6699 52.9282 60.6699 52 60.134L45.9067 56.616C44.9785 56.0801 44.4067 55.0897 44.4067 54.0179V46.9821C44.4067 45.9103 44.9785 44.9199 45.9067 44.384L52 40.866Z" fill="#0B7FB3"/>
<path d="M52.3576 45.2188L52.2939 45.549L52.0526 46.7548C51.6718 46.9075 51.3166 47.1174 50.9991 47.3772L49.8186 46.9709L49.5009 46.8693L49.336 47.161L48.5235 48.5577L48.3585 48.8498L48.5998 49.0651L49.5139 49.8654C49.4798 50.0726 49.4375 50.2806 49.4375 50.5C49.4375 50.7194 49.4802 50.9266 49.5139 51.135L48.5998 51.9345L48.3585 52.1506L48.5235 52.4423L49.336 53.839L49.5009 54.1307L49.8186 54.0291L50.9991 53.6228C51.3168 53.8826 51.6721 54.0925 52.053 54.2452L52.2939 55.451L52.3572 55.7812H54.6428L54.7062 55.451L54.9471 54.2452C55.3279 54.0925 55.6833 53.8826 56.0009 53.6228L57.1819 54.0291L57.4987 54.1307L57.6641 53.839L58.4766 52.4423L58.6415 52.1506L58.4006 51.9345L57.4866 51.135C57.5199 50.9266 57.5625 50.7186 57.5625 50.5C57.5625 50.2806 57.5199 50.0734 57.4861 49.865L58.4002 49.0655L58.6415 48.8498L58.4766 48.5573L57.6641 47.161L57.4991 46.8693L57.1815 46.9709L56.0009 47.3772C55.6834 47.1174 55.3282 46.9075 54.9475 46.7548L54.7062 45.549L54.6424 45.2188H52.3576ZM53.0174 46.0312H53.9826L54.1858 47.0851L54.2366 47.326L54.4649 47.4023C54.9227 47.5457 55.3431 47.7885 55.6962 48.1133L55.8741 48.2782L56.1025 48.2023L57.1311 47.8468L57.6133 48.6719L56.8008 49.3954L56.6103 49.5477L56.6741 49.7891C56.7261 50.0206 56.75 50.2571 56.75 50.5C56.75 50.7429 56.7261 50.9794 56.6736 51.2109L56.6229 51.4523L56.8008 51.6046L57.6133 52.3281L57.1307 53.1532L56.1029 52.7977L55.8741 52.7218L55.6962 52.8867C55.3431 53.2115 54.9227 53.4543 54.4649 53.5977L54.2361 53.674L54.1854 53.9149L53.9822 54.9688H53.0174L52.8143 53.9149L52.7639 53.674L52.5352 53.5977C52.0774 53.4543 51.6569 53.2115 51.3038 52.8867L51.1259 52.7218L50.8976 52.7977L49.8694 53.1532L49.3867 52.3281L50.1992 51.6046L50.3898 51.4523L50.3264 51.2109C50.2745 50.9775 50.2489 50.7391 50.25 50.5C50.25 50.2571 50.274 50.0206 50.3264 49.7891L50.3898 49.5477L50.1992 49.3954L49.3867 48.6719L49.8694 47.8468L50.8972 48.2023L51.1259 48.2782L51.3038 48.1133C51.6569 47.7885 52.0774 47.5457 52.5352 47.4023L52.7639 47.326L52.8143 47.0851L53.0174 46.0312ZM53.5 48.4688C52.3828 48.4688 51.4688 49.3828 51.4688 50.5C51.4688 51.6172 52.3828 52.5312 53.5 52.5312C54.6172 52.5312 55.5313 51.6172 55.5313 50.5C55.5313 49.3828 54.6172 48.4688 53.5 48.4688ZM53.5 49.2812C54.1776 49.2812 54.7188 49.8224 54.7188 50.5C54.7188 51.1776 54.1776 51.7188 53.5 51.7188C52.8224 51.7188 52.2813 51.1776 52.2813 50.5C52.2813 49.8224 52.8224 49.2812 53.5 49.2812Z" fill="white"/>
</g>
<defs>
<linearGradient id="paint0_linear_166_1294" x1="32.9163" y1="19.3923" x2="32.9163" y2="54.084" gradientUnits="userSpaceOnUse">
<stop stop-color="#79D3FC"/>
<stop offset="1" stop-color="#1FA9E7"/>
</linearGradient>
<linearGradient id="paint1_linear_166_1294" x1="33.0551" y1="31.0487" x2="33.0551" y2="42.15" gradientUnits="userSpaceOnUse">
<stop stop-color="#C5E0FB"/>
<stop offset="1" stop-color="#2D92F8"/>
</linearGradient>
<clipPath id="clip0_166_1294">
<rect width="64" height="64" fill="white"/>
</clipPath>
</defs>
</svg>
