<svg width="450" height="250" viewBox="0 0 450 250" fill="none" xmlns="http://www.w3.org/2000/svg">
<g clip-path="url(#clip0_259_2520)">
<rect width="450" height="249" fill="url(#paint0_linear_259_2520)"/>
<circle cx="45.4327" cy="104.519" r="4.32692" fill="url(#paint1_linear_259_2520)"/>
<circle cx="69.2308" cy="210.529" r="4.32692" fill="url(#paint2_linear_259_2520)"/>
<circle cx="294.231" cy="39.6154" r="6.49038" fill="url(#paint3_linear_259_2520)"/>
<path d="M381.851 161.851C341.178 167.043 285.577 159.688 262.861 155.361V208.365H450V159.688C444.231 158.245 422.524 156.659 381.851 161.851Z" fill="url(#paint4_linear_259_2520)"/>
<path fill-rule="evenodd" clip-rule="evenodd" d="M450 195.536L413.221 184.718C374.279 173.901 300.721 152.266 225 154.43C149.279 156.593 75.7212 182.555 36.7789 195.536L1.90735e-05 208.516V249.622H36.7789C75.7212 249.622 149.279 249.622 225 249.622C300.721 249.622 374.279 249.622 413.221 249.622H450V195.536Z" fill="url(#paint5_linear_259_2520)"/>
<path d="M219.591 159.687C222.188 156.226 223.918 159.687 225 159.687C223.558 159.327 221.322 153.413 219.591 149.952C217.428 145.625 214.183 146.707 210.938 147.788C215.264 148.87 213.101 153.197 214.183 156.442C215.264 159.687 216.346 164.014 219.591 159.687Z" fill="url(#paint6_linear_259_2520)"/>
<path d="M292.477 144.461C291.067 144.045 289.86 143.125 289.085 141.876C288.309 140.628 288.02 139.138 288.272 137.69C288.946 134.793 294.34 130.847 295.965 129.477C296.817 131.423 299.427 137.222 298.753 140.119C298.078 143.016 295.154 145.084 292.477 144.461Z" fill="url(#paint7_linear_259_2520)"/>
<path d="M250.607 63.6485C249.197 63.2324 247.99 62.3126 247.215 61.0641C246.439 59.8157 246.15 58.3258 246.402 56.8778C247.076 53.981 252.47 50.0346 254.095 48.6647C254.947 50.6113 257.557 56.4102 256.883 59.3071C256.208 62.204 253.284 64.2717 250.607 63.6485Z" fill="url(#paint8_linear_259_2520)"/>
<path d="M351.239 41.6846C350.298 41.407 349.493 40.7933 348.976 39.9604C348.458 39.1275 348.265 38.1334 348.433 37.1674C348.883 35.2347 352.482 32.6018 353.566 31.6878C354.135 32.9865 355.876 36.8555 355.426 38.7882C354.976 40.7209 353.025 42.1004 351.239 41.6846Z" fill="url(#paint9_linear_259_2520)"/>
<path d="M245.092 138.428C245.464 138.729 245.713 139.155 245.79 139.627C245.868 140.098 245.77 140.582 245.514 140.986C244.952 141.772 243.39 140.216 242.182 142.498C242.167 141.807 242.104 139.74 242.667 138.953C243.229 138.166 244.365 137.908 245.092 138.428Z" fill="url(#paint10_linear_259_2520)"/>
<path d="M216.196 130.169C217.008 129.865 217.905 129.87 218.714 130.184C219.523 130.497 220.189 131.098 220.585 131.87C221.295 133.477 222.315 142.149 219.871 138.478C217.428 134.808 215.264 135.889 214.776 134.447C214.288 133.004 214.711 130.826 216.196 130.169Z" fill="url(#paint11_linear_259_2520)"/>
<path d="M390.088 165.438C389.147 165.16 388.342 164.546 387.825 163.713C387.307 162.88 387.114 161.886 387.282 160.92C387.732 158.988 391.331 156.355 392.415 155.441C392.984 156.74 394.725 160.608 394.275 162.541C393.825 164.474 391.874 165.853 390.088 165.438Z" fill="url(#paint12_linear_259_2520)"/>
<path d="M119.655 150.293C118.715 150.016 117.909 149.402 117.392 148.569C116.875 147.736 116.682 146.742 116.849 145.776C117.299 143.843 120.898 141.211 121.982 140.297C122.551 141.595 124.292 145.464 123.842 147.397C123.392 149.33 121.441 150.709 119.655 150.293Z" fill="url(#paint13_linear_259_2520)"/>
<path d="M165.415 88.7928C164.005 88.3766 162.798 87.4568 162.022 86.2084C161.247 84.9599 160.958 83.47 161.209 82.0221C161.884 79.1252 167.278 75.1788 168.903 73.809C169.755 75.7555 172.365 81.5545 171.69 84.4514C171.016 87.3482 168.092 89.4159 165.415 88.7928Z" fill="url(#paint14_linear_259_2520)"/>
<path d="M227.714 161.573C225.608 161.088 223.752 159.845 222.502 158.082C221.252 156.318 220.693 154.156 220.934 152.007C221.664 147.693 229.231 141.416 231.494 139.259C232.921 142.041 237.272 150.322 236.541 154.636C235.81 158.95 231.701 162.248 227.714 161.573Z" fill="url(#paint15_linear_259_2520)"/>
<path d="M214.183 156.442C215.264 165.096 225 163.293 229.327 161.851C233.654 159.688 229.327 153.197 225 155.361C220.162 157.779 212.946 146.546 214.183 156.442Z" fill="url(#paint16_linear_259_2520)"/>
<path d="M220.673 162.933C229.327 164.014 235.817 162.933 240.144 161.851C241.947 161.433 241.226 158.606 237.981 159.688C234.735 160.769 230.409 160.769 226.082 158.606C219.841 155.486 219.591 161.13 220.673 162.933Z" fill="url(#paint17_linear_259_2520)"/>
<path d="M240.144 161.851C234.952 163.582 226.082 161.851 227.163 160.769C234.735 159.687 232.572 151.034 242.308 148.87C236.899 156.442 246.635 159.687 240.144 161.851Z" fill="url(#paint18_linear_259_2520)"/>
<path d="M228.227 156.496C236.125 156.762 243.228 157.872 248.324 159.443C250.875 160.229 252.895 161.122 254.257 162.064C255.641 163.02 256.223 163.937 256.196 164.749C256.169 165.561 255.527 166.436 254.081 167.298C252.659 168.146 250.584 168.901 247.985 169.514C242.796 170.739 235.634 171.37 227.736 171.104C219.838 170.839 212.735 169.729 207.64 168.158C205.089 167.372 203.069 166.479 201.707 165.537C200.322 164.581 199.74 163.664 199.768 162.852C199.795 162.04 200.437 161.165 201.883 160.303C203.305 159.455 205.38 158.7 207.978 158.086C213.168 156.862 220.329 156.231 228.227 156.496Z" stroke="url(#paint19_linear_259_2520)"/>
<path fill-rule="evenodd" clip-rule="evenodd" d="M90.5359 178.258C91.8324 181.68 94.945 185.137 99.8561 188.531C106.625 193.209 116.568 197.589 128.995 201.42C153.837 209.076 188.386 214.469 226.744 215.758C265.102 217.047 299.936 213.987 325.235 208.016C337.892 205.029 348.106 201.327 355.174 197.114C362.289 192.873 365.958 188.278 366.116 183.588C366.267 179.075 363.169 174.431 356.862 169.891C357.664 170.078 358.462 170.266 359.256 170.453C364.487 174.656 367.267 179.095 367.115 183.622C366.413 204.505 303.552 219.341 226.711 216.757C155.15 214.352 96.7012 197.688 89.5729 178.542C89.8932 178.447 90.2142 178.352 90.5359 178.258Z" fill="url(#paint20_linear_259_2520)"/>
<path fill-rule="evenodd" clip-rule="evenodd" d="M231.694 154.3C243.309 154.911 253.688 156.634 261.312 158.984C265.491 160.272 268.786 161.731 271 163.261C273.259 164.822 274.146 166.277 274.105 167.514C274.063 168.752 273.08 170.144 270.721 171.549C268.41 172.927 265.024 174.162 260.768 175.166C252.271 177.172 240.535 178.206 227.585 177.771C214.635 177.336 202.994 175.515 194.651 172.944C190.473 171.656 187.177 170.197 184.963 168.667C182.705 167.106 181.817 165.651 181.859 164.413C181.9 163.176 182.884 161.784 185.242 160.378C187.554 159.001 190.94 157.766 195.195 156.761C196.08 156.553 197.001 156.354 197.954 156.167C195.562 156.402 193.176 156.656 190.797 156.929C184.655 158.881 180.958 161.456 180.859 164.38C180.622 171.453 201.526 177.896 227.551 178.771C253.576 179.645 274.866 174.621 275.104 167.548C275.293 161.93 262.143 156.709 243.683 154.361C239.698 154.28 235.7 154.258 231.694 154.3Z" fill="url(#paint21_linear_259_2520)"/>
<path fill-rule="evenodd" clip-rule="evenodd" d="M267.33 155.508C272.104 156.481 276.499 157.586 280.432 158.799C287.013 160.827 292.244 163.137 295.785 165.584C299.37 168.061 300.975 170.499 300.9 172.742C300.824 174.985 299.059 177.31 295.316 179.541C291.619 181.744 286.245 183.698 279.542 185.28C266.152 188.44 247.69 190.064 227.34 189.38C206.991 188.696 188.679 185.835 175.532 181.783C168.951 179.755 163.72 177.445 160.179 174.998C156.594 172.521 154.989 170.082 155.064 167.84C155.134 165.759 156.659 163.608 159.868 161.526C159.108 161.663 158.349 161.802 157.591 161.942C155.366 163.757 154.135 165.725 154.065 167.806C153.692 178.901 186.483 189.007 227.307 190.38C268.13 191.752 301.526 183.87 301.899 172.776C302.113 166.403 291.386 160.356 274.48 156.104C272.106 155.888 269.722 155.689 267.33 155.508Z" fill="url(#paint22_linear_259_2520)"/>
<path d="M100.526 53.4027C98.4522 52.7905 96.6761 51.4374 95.5355 49.6009C94.3948 47.7643 93.9692 45.5725 94.3395 43.4425C95.3315 39.1809 103.267 33.3754 105.657 31.3602C106.911 34.2237 110.75 42.7546 109.758 47.0161C108.766 51.2777 104.464 54.3194 100.526 53.4027Z" fill="url(#paint23_linear_259_2520)"/>
<path d="M380.731 110.625C378.474 109.959 376.541 108.487 375.3 106.488C374.058 104.489 373.595 102.104 373.998 99.7858C375.078 95.148 383.714 88.83 386.315 86.6369C387.68 89.7533 391.858 99.0372 390.778 103.675C389.698 108.313 385.017 111.623 380.731 110.625Z" fill="url(#paint24_linear_259_2520)"/>
<path opacity="0.9" d="M213.101 99.1106C206.971 105.24 192.332 121.611 182.812 138.053" stroke="url(#paint25_linear_259_2520)" stroke-width="0.3" stroke-linecap="round"/>
<path opacity="0.72" d="M361.298 106.683C355.168 112.812 336.202 137.837 326.683 154.279" stroke="url(#paint26_linear_259_2520)" stroke-width="0.4" stroke-linecap="round"/>
<path d="M419.712 13.6538C413.582 19.7836 398.942 36.1538 389.423 52.5961" stroke="url(#paint27_linear_259_2520)" stroke-width="0.3" stroke-linecap="round"/>
<path d="M217.507 21.7767C215.251 21.1105 213.318 19.6379 212.076 17.6392C210.835 15.6405 210.372 13.2552 210.775 10.9372C211.854 6.2994 220.49 -0.0186135 223.091 -2.21171C224.456 0.904619 228.634 10.1885 227.554 14.8263C226.475 19.464 221.793 22.7743 217.507 21.7767Z" fill="url(#paint28_linear_259_2520)"/>
<path d="M270.724 117.959C288.822 85.0481 293.149 76.3942 319.901 47.8105" stroke="url(#paint29_linear_259_2520)" stroke-width="0.6" stroke-linecap="round"/>
<path d="M181.723 11.5497C174.431 19.772 158.167 38.399 151.45 47.1282" stroke="url(#paint30_linear_259_2520)" stroke-width="0.4" stroke-linecap="round"/>
<circle cx="363.462" cy="219.183" r="6.49038" fill="url(#paint31_linear_259_2520)"/>
</g>
<defs>
<linearGradient id="paint0_linear_259_2520" x1="381.851" y1="-1.31685e-05" x2="144.378" y2="213.149" gradientUnits="userSpaceOnUse">
<stop stop-color="#36BEFA"/>
<stop offset="1" stop-color="#26B2F0" stop-opacity="0"/>
</linearGradient>
<linearGradient id="paint1_linear_259_2520" x1="45.4327" y1="100.192" x2="45.4327" y2="108.846" gradientUnits="userSpaceOnUse">
<stop stop-color="#22A7E1" stop-opacity="0"/>
<stop offset="1" stop-color="#22A7E1"/>
</linearGradient>
<linearGradient id="paint2_linear_259_2520" x1="69.2308" y1="206.202" x2="69.2308" y2="214.856" gradientUnits="userSpaceOnUse">
<stop stop-color="#22A7E1" stop-opacity="0"/>
<stop offset="1" stop-color="#1DA0DA"/>
</linearGradient>
<linearGradient id="paint3_linear_259_2520" x1="294.231" y1="33.125" x2="294.231" y2="46.1058" gradientUnits="userSpaceOnUse">
<stop stop-color="#22A7E1" stop-opacity="0"/>
<stop offset="1" stop-color="#22A7E1"/>
</linearGradient>
<linearGradient id="paint4_linear_259_2520" x1="408.894" y1="148.87" x2="349.399" y2="219.183" gradientUnits="userSpaceOnUse">
<stop stop-color="#58C7F9"/>
<stop offset="0.239583" stop-color="#46B4E4" stop-opacity="0.744792"/>
<stop offset="1" stop-color="#29B4F2" stop-opacity="0"/>
</linearGradient>
<linearGradient id="paint5_linear_259_2520" x1="242.308" y1="133.726" x2="214.183" y2="302.476" gradientUnits="userSpaceOnUse">
<stop stop-color="#77C9FF"/>
<stop offset="1" stop-color="#0099FF" stop-opacity="0"/>
</linearGradient>
<linearGradient id="paint6_linear_259_2520" x1="216.346" y1="160.769" x2="223.918" y2="153.197" gradientUnits="userSpaceOnUse">
<stop stop-color="#B5E8FF" stop-opacity="0.69"/>
<stop offset="1" stop-color="#B5E8FF" stop-opacity="0"/>
</linearGradient>
<linearGradient id="paint7_linear_259_2520" x1="295.72" y1="129.42" x2="292.232" y2="144.404" gradientUnits="userSpaceOnUse">
<stop stop-color="#79D3FC" stop-opacity="0.05"/>
<stop offset="1" stop-color="#8ED9FB"/>
</linearGradient>
<linearGradient id="paint8_linear_259_2520" x1="253.85" y1="48.6077" x2="250.362" y2="63.5915" gradientUnits="userSpaceOnUse">
<stop stop-color="#79D3FC" stop-opacity="0.05"/>
<stop offset="1" stop-color="#8ED9FB"/>
</linearGradient>
<linearGradient id="paint9_linear_259_2520" x1="353.403" y1="31.6498" x2="351.075" y2="41.6466" gradientUnits="userSpaceOnUse">
<stop stop-color="#79D3FC" stop-opacity="0.05"/>
<stop offset="1" stop-color="#BFEBFF"/>
</linearGradient>
<linearGradient id="paint10_linear_259_2520" x1="242.248" y1="142.545" x2="245.159" y2="138.476" gradientUnits="userSpaceOnUse">
<stop stop-color="#79D3FC" stop-opacity="0.05"/>
<stop offset="1" stop-color="#BFEBFF"/>
</linearGradient>
<linearGradient id="paint11_linear_259_2520" x1="220.007" y1="138.418" x2="216.331" y2="130.109" gradientUnits="userSpaceOnUse">
<stop stop-color="#79D3FC" stop-opacity="0.05"/>
<stop offset="1" stop-color="#BFEBFF"/>
</linearGradient>
<linearGradient id="paint12_linear_259_2520" x1="392.252" y1="155.403" x2="389.924" y2="165.4" gradientUnits="userSpaceOnUse">
<stop stop-color="#79D3FC" stop-opacity="0.05"/>
<stop offset="1" stop-color="#BFEBFF"/>
</linearGradient>
<linearGradient id="paint13_linear_259_2520" x1="121.819" y1="140.259" x2="119.492" y2="150.255" gradientUnits="userSpaceOnUse">
<stop stop-color="#79D3FC" stop-opacity="0.05"/>
<stop offset="1" stop-color="#BFEBFF"/>
</linearGradient>
<linearGradient id="paint14_linear_259_2520" x1="168.658" y1="73.752" x2="165.17" y2="88.7358" gradientUnits="userSpaceOnUse">
<stop stop-color="#79D3FC" stop-opacity="0.05"/>
<stop offset="1" stop-color="#8ED9FB"/>
</linearGradient>
<linearGradient id="paint15_linear_259_2520" x1="231.13" y1="139.197" x2="227.35" y2="161.511" gradientUnits="userSpaceOnUse">
<stop stop-color="#79D3FC" stop-opacity="0.05"/>
<stop offset="1" stop-color="#BFEBFF"/>
</linearGradient>
<linearGradient id="paint16_linear_259_2520" x1="222.734" y1="152.657" x2="222.734" y2="163.062" gradientUnits="userSpaceOnUse">
<stop stop-color="#B5E8FF" stop-opacity="0"/>
<stop offset="1" stop-color="#B5E8FF"/>
</linearGradient>
<linearGradient id="paint17_linear_259_2520" x1="230.645" y1="157.683" x2="230.645" y2="163.381" gradientUnits="userSpaceOnUse">
<stop stop-color="#CDEFFF" stop-opacity="0"/>
<stop offset="1" stop-color="#66CFFF"/>
</linearGradient>
<linearGradient id="paint18_linear_259_2520" x1="231.642" y1="160.816" x2="240.518" y2="146.257" gradientUnits="userSpaceOnUse">
<stop stop-color="#B5E8FF"/>
<stop offset="1" stop-color="#3DC1FD" stop-opacity="0.88"/>
</linearGradient>
<linearGradient id="paint19_linear_259_2520" x1="224.211" y1="178.318" x2="225.054" y2="156.592" gradientUnits="userSpaceOnUse">
<stop stop-color="#BFEBFF"/>
<stop offset="1" stop-color="#BFEBFF" stop-opacity="0"/>
</linearGradient>
<linearGradient id="paint20_linear_259_2520" x1="208.774" y1="358.689" x2="274.773" y2="88.6178" gradientUnits="userSpaceOnUse">
<stop stop-color="#BFEBFF" stop-opacity="0.31"/>
<stop offset="1" stop-color="#BFEBFF" stop-opacity="0"/>
</linearGradient>
<linearGradient id="paint21_linear_259_2520" x1="139.647" y1="165.17" x2="270.18" y2="174.677" gradientUnits="userSpaceOnUse">
<stop stop-color="#45B7FA"/>
<stop offset="1" stop-color="#BFEBFF" stop-opacity="0"/>
</linearGradient>
<linearGradient id="paint22_linear_259_2520" x1="222.837" y1="222.883" x2="250.927" y2="143.064" gradientUnits="userSpaceOnUse">
<stop stop-color="#73CBFF" stop-opacity="0.7"/>
<stop offset="1" stop-color="#BFEBFF" stop-opacity="0"/>
</linearGradient>
<linearGradient id="paint23_linear_259_2520" x1="105.297" y1="31.2764" x2="100.166" y2="53.3189" gradientUnits="userSpaceOnUse">
<stop stop-color="#79D3FC" stop-opacity="0.05"/>
<stop offset="1" stop-color="#BFEBFF"/>
</linearGradient>
<linearGradient id="paint24_linear_259_2520" x1="385.923" y1="86.5457" x2="380.339" y2="110.534" gradientUnits="userSpaceOnUse">
<stop stop-color="#79D3FC" stop-opacity="0.05"/>
<stop offset="1" stop-color="#BFEBFF"/>
</linearGradient>
<linearGradient id="paint25_linear_259_2520" x1="193.089" y1="132.49" x2="220.898" y2="102.323" gradientUnits="userSpaceOnUse">
<stop stop-color="#83D8FF"/>
<stop offset="1" stop-color="#3DC1FD" stop-opacity="0"/>
</linearGradient>
<linearGradient id="paint26_linear_259_2520" x1="336.959" y1="148.716" x2="364.768" y2="118.549" gradientUnits="userSpaceOnUse">
<stop stop-color="#83D8FF"/>
<stop offset="1" stop-color="#3DC1FD" stop-opacity="0"/>
</linearGradient>
<linearGradient id="paint27_linear_259_2520" x1="399.7" y1="47.033" x2="427.509" y2="16.8658" gradientUnits="userSpaceOnUse">
<stop stop-color="#83D8FF"/>
<stop offset="1" stop-color="#3DC1FD" stop-opacity="0"/>
</linearGradient>
<linearGradient id="paint28_linear_259_2520" x1="222.699" y1="-2.30292" x2="217.115" y2="21.6854" gradientUnits="userSpaceOnUse">
<stop stop-color="#79D3FC" stop-opacity="0.05"/>
<stop offset="1" stop-color="#BFEBFF"/>
</linearGradient>
<linearGradient id="paint29_linear_259_2520" x1="276.923" y1="120.745" x2="320.03" y2="42.2962" gradientUnits="userSpaceOnUse">
<stop stop-color="#7BD5FE"/>
<stop offset="1" stop-color="#3DC1FD" stop-opacity="0"/>
</linearGradient>
<linearGradient id="paint30_linear_259_2520" x1="162.517" y1="41.1673" x2="178.8" y2="7.17184" gradientUnits="userSpaceOnUse">
<stop stop-color="#83D8FF"/>
<stop offset="1" stop-color="#3DC1FD" stop-opacity="0"/>
</linearGradient>
<linearGradient id="paint31_linear_259_2520" x1="363.462" y1="212.692" x2="363.462" y2="225.673" gradientUnits="userSpaceOnUse">
<stop stop-color="#22A7E1" stop-opacity="0"/>
<stop offset="1" stop-color="#22A7E1"/>
</linearGradient>
<clipPath id="clip0_259_2520">
<path d="M0 0H438C444.627 0 450 5.37258 450 12V238C450 244.627 444.627 250 438 250H0V0Z" fill="white"/>
</clipPath>
</defs>
</svg>
